<svg xmlns="http://www.w3.org/2000/svg" fill="none" viewBox="0 0 35 24.75">
<path d="M10.3202 3.38801C11.306 1.31832 13.3941 0 15.6865 0H35.0001V0C35.0001 3.48373 32.2007 6.32081 28.7173 6.36731L8.77441 6.63351L10.3202 3.38801Z" fill="black"/>
<path d="M19.6677 11.5522C20.7853 10.0058 22.5773 9.08984 24.4852 9.08984H31.923V9.08984C31.923 12.4115 29.4475 15.2123 26.151 15.6202L15.8022 16.9008L19.6677 11.5522Z" fill="black"/>
<path d="M0 23.8517L6.5853 13.4058C8.21495 10.8208 11.0535 9.25381 14.1067 9.25381L17.5486 9.25382L9.29462 21.6226C7.25354 24.6812 3.20724 25.6516 0 23.8517V23.8517Z" fill="black"/>
</svg>